<?xml version="1.0" encoding="UTF-8" standalone="no"?>
<svg width="194px" height="776px" viewBox="0 0 194 776" version="1.1" xmlns="http://www.w3.org/2000/svg" xmlns:xlink="http://www.w3.org/1999/xlink">
    <!-- Generator: Sketch 40.3 (33839) - http://www.bohemiancoding.com/sketch -->
    <title>ornamento copy</title>
    <desc>Created with Sketch.</desc>
    <defs>
        <polygon id="path-1" points="0 775.605349 193.145511 775.605349 193.145511 0 0 0"></polygon>
    </defs>
    <g id="Symbols" stroke="none" stroke-width="1" fill="none" fill-rule="evenodd">
        <g id="footer" transform="translate(-1246.000000, -48.000000)">
            <g id="ornamento-copy">
                <g transform="translate(1343.000000, 436.000000) scale(-1, 1) translate(-1343.000000, -436.000000) translate(1246.000000, 48.000000)">
                    <mask id="mask-2" fill="white">
                        <use xlink:href="#path-1"></use>
                    </mask>
                    <g id="Clip-2"></g>
                    <path d="M175.178742,491.665323 L173.684498,491.665323 L169.189918,503.620157 C170.932956,503.620157 172.933673,500.128896 175.178742,493.159677 L175.178742,491.665323 Z M172.18433,273.47925 L169.189918,273.47925 L169.189918,274.973605 L173.684498,285.434085 L175.178742,285.434085 L175.178742,282.445376 L172.18433,273.47925 Z M163.201093,155.419349 C160.956024,155.419349 159.458818,157.906984 158.710956,162.891121 C160.956024,162.891121 162.453231,160.399052 163.201093,155.419349 L163.201093,155.419349 Z M154.216376,676.972645 L155.716544,676.972645 L155.716544,668.006519 L154.216376,668.006519 L154.216376,676.972645 Z M154.216376,74.7197836 L155.716544,74.7197836 L155.716544,67.2480122 L154.216376,67.2480122 L154.216376,74.7197836 Z M155.716544,100.125285 L154.216376,100.125285 L154.216376,103.113993 L152.722131,103.113993 L154.216376,109.092888 L155.716544,109.092888 L155.716544,104.608347 L154.216376,104.608347 L155.716544,103.113993 L155.716544,100.125285 Z M142.238727,37.3594484 L142.238727,38.8538027 L145.233139,41.8439893 L145.233139,40.349635 L142.238727,37.3594484 Z M166.195505,234.623083 L166.195505,237.613269 L160.206681,245.085041 C151.972788,245.085041 143.981765,238.108431 136.249902,224.162603 L137.748589,222.668248 L137.748589,221.173894 C141.988452,223.911326 149.970589,226.404873 161.705368,228.645666 L166.195505,234.623083 Z M121.27636,629.151829 L118.281948,629.151829 L118.281948,632.140538 L121.27636,635.129246 L121.27636,629.151829 Z M118.281948,618.691349 L121.27636,618.691349 L121.27636,612.713932 L118.281948,612.713932 L118.281948,618.691349 Z M121.27636,153.924995 L118.281948,156.913704 L118.281948,162.891121 L121.27636,159.902412 L121.27636,153.924995 Z M113.793292,182.319205 L110.798879,185.307913 L110.798879,188.296622 L113.793292,185.307913 L113.793292,182.319205 Z M110.798879,588.802786 L109.298711,588.802786 L113.793292,594.780203 L113.793292,591.791494 L110.798879,588.802786 Z M97.3210626,410.965757 L86.8421008,410.965757 L83.8476885,419.931883 L85.3419328,418.437528 L86.8421008,418.437528 L89.836513,421.426237 L85.3419328,421.426237 L86.8421008,425.9093 L91.3307573,425.9093 C91.3307573,423.165955 94.3266504,421.176439 100.315475,419.931883 L100.315475,416.943174 L101.814162,416.943174 L97.3210626,410.965757 Z M64.3810473,523.048241 L62.8853221,523.048241 L62.8853221,527.531304 L65.8797344,527.531304 C65.8797344,530.520012 67.3754595,532.014366 70.3698718,532.014366 L70.3698718,535.003075 L73.364284,535.003075 C67.3754595,529.025658 64.3810473,525.037757 64.3810473,523.048241 L64.3810473,523.048241 Z M61.3866351,436.371258 L56.8964977,434.876904 L56.8964977,437.865612 L61.3866351,437.865612 L61.3866351,436.371258 Z M47.9132611,503.620157 L46.4130931,503.620157 L46.4130931,505.114511 L53.9020855,512.587761 L53.9020855,511.093406 L47.9132611,503.620157 Z M47.9132611,573.857765 C45.9125435,573.857765 44.9188489,575.353597 44.9188489,578.342306 L44.9188489,579.83666 L46.4130931,579.83666 L47.9132611,573.857765 Z M64.3810473,336.243608 L59.8909099,336.243608 C59.8909099,337.984805 55.3963298,340.476873 46.4130931,343.716858 L44.9188489,342.222504 L44.9188489,345.211212 L47.9132611,348.199921 L49.4075053,348.199921 C49.4075053,344.959936 54.3981924,341.473109 64.3810473,337.739441 L64.3810473,336.243608 Z M43.4186809,194.274039 L43.4186809,195.768393 C44.9188489,199.750382 46.4130931,201.74581 47.9132611,201.74581 L47.9132611,200.251456 L43.4186809,194.274039 Z M41.9244366,436.371258 L40.4242687,451.316279 L41.9244366,451.316279 L50.9076733,445.338862 C47.1624366,439.606808 44.1680244,436.616622 41.9244366,436.371258 L41.9244366,436.371258 Z M41.9244366,324.288774 L40.4242687,324.288774 L41.9244366,339.233795 L43.4186809,339.233795 L49.4075053,334.749254 C46.9106809,328.269285 44.4138565,324.785414 41.9244366,324.288774 L41.9244366,324.288774 Z M89.836513,563.397285 L91.3307573,561.90293 L92.8309252,561.90293 L100.315475,570.869056 L101.814162,570.869056 L91.3307573,558.914222 L89.836513,560.408576 L88.336345,560.408576 L86.8421008,558.914222 L86.8421008,555.925513 L89.836513,555.925513 L89.836513,554.431159 L86.8421008,551.44245 L85.3419328,551.44245 L86.8421008,552.936805 L86.8421008,555.925513 L79.3531084,548.453742 L80.8532763,546.959387 L82.3475206,546.959387 L82.3475206,549.948096 L85.3419328,549.948096 L77.8588641,540.980492 L73.364284,542.476325 L43.4186809,505.114511 L44.9188489,497.64274 C43.4186809,497.64274 40.4242687,492.657125 35.9341313,482.699197 L34.4354443,482.699197 L34.4354443,484.193551 C34.4354443,517.070824 57.8901924,551.937612 104.808574,588.802786 L106.304299,588.802786 L106.304299,587.308431 C106.304299,585.311525 104.808574,584.319723 101.814162,584.319723 C101.814162,578.587669 97.8171695,571.615494 89.836513,563.397285 L89.836513,563.397285 Z M103.309887,186.802267 C57.3926046,225.656957 34.4354443,260.028584 34.4354443,289.917147 L34.4354443,292.905856 L37.4298565,292.905856 C39.6764061,285.182808 43.1684061,278.708751 47.9132611,273.47925 L47.9132611,271.984896 L44.9188489,271.984896 L44.9188489,268.994709 L50.9076733,263.017292 L53.9020855,266.006001 L53.9020855,263.017292 L50.9076733,263.017292 L50.9076733,261.522938 C59.3873985,249.813467 66.3773221,242.341696 71.8685588,239.107624 C71.8685588,235.370999 79.3531084,227.396675 94.3266504,215.196477 L94.3266504,213.702123 L89.836513,216.690831 L88.336345,216.690831 L88.336345,215.196477 C97.8171695,200.251456 103.805994,192.779685 106.304299,192.779685 L106.304299,189.790976 L103.309887,186.802267 Z M25.4507267,391.537673 L23.9564824,391.537673 L23.9564824,396.020736 L25.4507267,397.51509 L25.4507267,399.009445 L29.9453069,397.51509 L29.9453069,396.020736 L25.4507267,391.537673 Z M56.8964977,572.36341 L56.8964977,578.342306 C56.8964977,590.29714 45.9125435,600.255067 23.9564824,608.230869 L22.4563145,608.230869 L22.4563145,606.735037 C26.2015511,603.243776 29.1959634,592.286656 31.4410321,573.857765 L40.4242687,564.891639 L47.9132611,564.891639 L56.8964977,572.36341 Z M74.8644519,387.05461 C64.6283603,387.05461 51.6555359,377.089292 35.9341313,357.166046 C28.9427267,343.962222 25.4507267,327.522846 25.4507267,307.850877 L25.4507267,297.388919 C25.4507267,280.448469 29.9453069,264.010572 38.9285435,248.073749 L38.9285435,245.085041 C25.9483145,259.777307 19.4619023,280.203106 19.4619023,306.356523 L19.4619023,319.805711 C24.704345,348.695083 34.1836885,369.122359 47.9132611,381.077193 C56.8964977,383.816104 61.3866351,386.306694 61.3866351,388.548965 L43.4186809,399.009445 C27.4484824,420.177246 19.4619023,441.603715 19.4619023,463.271113 L19.4619023,476.72178 C19.4619023,493.405041 25.9483145,512.833125 38.9285435,535.003075 L41.9244366,535.003075 C30.9390015,517.070824 25.4507267,496.645026 25.4507267,473.731593 L25.4507267,464.765467 C25.4507267,426.40594 40.9203756,401.495601 71.8685588,390.043319 L74.8644519,390.043319 L74.8644519,387.05461 Z M35.9341313,542.476325 C35.9341313,552.936805 27.4484824,560.408576 10.4786656,564.891639 L7.48425344,564.891639 L7.48425344,561.90293 C14.2224214,545.465033 19.7106962,536.497429 23.9564824,535.003075 L26.9508947,535.003075 L35.9341313,542.476325 Z M35.9341313,228.645666 L35.9341313,233.128728 L26.9508947,242.096332 C21.2064214,242.096332 14.7200092,232.627654 7.48425344,213.702123 L5.98852824,212.207768 L7.48425344,210.713414 L13.4730779,210.713414 C22.2060397,214.693925 29.6920702,220.67282 35.9341313,228.645666 L35.9341313,228.645666 Z M193.146696,222.668248 L193.146696,225.656957 C193.146696,233.876645 187.156391,240.350702 175.178742,245.085041 L169.189918,243.590686 L169.189918,240.601978 C182.164223,239.602786 188.656559,234.623083 188.656559,225.656957 L188.656559,218.185186 C185.662147,204.483243 176.173918,197.508111 160.206681,197.262747 C147.229414,197.262747 133.751597,205.231159 119.782116,221.173894 L94.3266504,240.601978 L97.3210626,240.601978 L97.3210626,242.096332 C103.059612,239.107624 110.048055,237.613269 118.281948,237.613269 C138.496452,237.613269 154.9672,247.074557 167.694192,266.006001 C178.670742,266.006001 184.161979,272.480058 184.161979,285.434085 L184.161979,291.411502 C183.415597,304.359616 181.41636,310.839586 178.173154,310.839586 L157.210788,279.456667 C157.210788,272.480058 159.70465,268.994709 164.69978,268.994709 L164.69978,267.500355 C152.468895,250.561384 136.999246,242.096332 118.281948,242.096332 C94.0748947,242.096332 74.6112153,251.55762 59.8909099,270.490542 L61.3866351,270.490542 C69.6220092,264.511646 81.599658,261.522938 97.3210626,261.522938 C114.786986,261.522938 129.26294,269.491349 140.744482,285.434085 L142.238727,292.905856 L142.238727,300.377627 C138.99404,319.304637 129.513215,328.771837 113.793292,328.771837 C98.0704061,328.771837 88.0860702,320.798991 83.8476885,304.862168 C83.8476885,291.160226 91.828345,283.688454 107.804467,282.445376 C120.775811,284.93301 127.266666,290.910427 127.266666,300.377627 C127.266666,307.348325 121.773948,312.829102 110.798879,316.817003 L110.798879,313.828294 L119.782116,303.367814 L119.782116,301.871982 C119.782116,296.391205 116.787704,292.404782 110.798879,289.917147 L103.309887,289.917147 C97.8171695,289.917147 93.328513,293.899136 89.836513,301.871982 C92.3274137,314.821574 99.3173374,321.300066 110.798879,321.300066 C126.764635,318.311357 134.754177,310.839586 134.754177,298.883273 L134.754177,294.40021 C130.009322,278.457475 118.031673,270.490542 98.8197496,270.490542 L88.336345,270.490542 C68.1248031,270.490542 52.6507115,283.438656 41.9244366,309.345231 L38.9285435,321.300066 L40.4242687,321.300066 C47.1624366,314.323456 56.6432611,310.839586 68.8741466,310.839586 L70.3698718,312.33394 L70.3698718,313.828294 C68.3706351,313.828294 63.8790168,318.806519 56.8964977,328.771837 L71.8685588,327.277483 C84.8413832,327.277483 91.3307573,328.771837 91.3307573,331.760546 C85.8395206,333.501742 75.8566656,340.476873 61.3866351,352.682984 L55.3963298,352.682984 L47.9132611,351.188629 L47.9132611,352.682984 C57.6443603,372.606229 70.6186656,382.571547 86.8421008,382.571547 C102.807856,380.329277 110.798879,373.354146 110.798879,361.649109 L110.798879,360.154755 C110.798879,354.925254 108.300574,350.938831 103.309887,348.199921 L89.836513,348.199921 C86.8421008,349.191723 85.3419328,352.180431 85.3419328,357.166046 C85.3419328,364.135266 88.8339328,367.626526 95.8253374,367.626526 L101.814162,360.154755 C101.814162,357.662686 97.8171695,355.671692 89.836513,354.177338 L89.836513,352.682984 L91.3307573,351.188629 L98.8197496,351.188629 L104.808574,357.166046 L104.808574,364.637818 L97.3210626,370.616713 L92.8309252,370.616713 C83.8476885,369.367723 79.3531084,364.88466 79.3531084,357.166046 C79.3531084,347.697368 86.3385893,342.717666 100.315475,342.222504 C109.298711,342.222504 115.287536,349.191723 118.281948,363.143464 C118.281948,371.859791 110.798879,380.827395 95.8253374,390.043319 C108.047337,390.043319 115.53633,398.506892 118.281948,415.44882 C118.281948,424.660309 110.798879,431.140279 95.8253374,434.876904 C84.8413832,431.638397 79.3531084,425.659502 79.3531084,416.943174 C83.5944519,408.96885 88.0860702,404.98834 92.8309252,404.98834 C100.562788,404.98834 105.052925,409.966565 106.304299,419.931883 C102.807856,423.912393 98.3162382,425.9093 92.8309252,425.9093 L91.3307573,427.405132 L91.3307573,428.899486 L97.3210626,430.393841 C105.306162,430.393841 109.794818,423.417231 110.798879,409.471403 C105.802269,399.506085 98.3162382,394.526382 88.336345,394.526382 L85.3419328,394.526382 C66.873429,394.526382 53.398574,406.482694 44.9188489,430.393841 L46.4130931,431.888195 L49.4075053,431.888195 L49.4075053,430.393841 L47.9132611,425.9093 L52.4019176,422.920591 C60.1352611,422.920591 70.6186656,428.899486 83.8476885,440.854321 L89.836513,442.348675 L89.836513,445.338862 L70.3698718,449.821925 L59.8909099,446.833216 L59.8909099,451.316279 L68.8741466,463.271113 L68.8741466,464.765467 L65.8797344,464.765467 L65.8797344,466.259822 C57.3926046,466.259822 48.9069557,462.273399 40.4242687,454.304987 L40.4242687,455.799342 C40.4242687,480.458405 55.3963298,496.894824 85.3419328,505.114511 L97.3210626,506.608866 C117.283811,506.608866 129.759047,498.13938 134.754177,481.204843 L134.754177,475.225947 C134.754177,464.765467 126.268528,457.788858 109.298711,454.304987 C100.811582,454.304987 94.3266504,460.282405 89.836513,472.237239 C89.836513,480.20565 95.321826,485.185353 106.304299,487.18226 C115.287536,485.687906 119.782116,481.700005 119.782116,475.225947 C119.782116,471.492279 116.787704,467.00626 110.798879,461.776759 L112.293124,460.282405 L113.793292,460.282405 C122.776528,465.513384 127.266666,470.989726 127.266666,476.72178 C127.266666,485.933269 120.278223,491.415525 106.304299,493.159677 C91.3307573,491.910686 83.8476885,484.438915 83.8476885,470.742885 C83.8476885,458.538252 93.8246198,451.065003 113.793292,448.32757 C132.75346,451.811441 142.238727,459.779852 142.238727,472.237239 L142.238727,476.72178 C142.238727,494.151479 132.75346,505.611151 113.793292,511.093406 L92.8309252,514.082115 C79.8506962,514.082115 68.8741466,511.093406 59.8909099,505.114511 L59.8909099,506.608866 C75.8566656,524.542595 93.8246198,533.508721 113.793292,533.508721 C136.746009,533.508721 153.218238,526.036949 163.201093,511.093406 L158.710956,503.620157 L158.710956,496.148386 C158.710956,492.413239 164.196269,483.942275 175.178742,470.742885 L176.67891,464.765467 L178.173154,464.765467 C180.667017,464.765467 182.667734,470.240332 184.161979,481.204843 L184.161979,494.654031 C184.161979,503.620157 178.173154,509.095022 166.195505,511.093406 C154.465169,529.025658 139.993658,537.991784 122.776528,537.991784 L118.281948,537.991784 L97.3210626,535.003075 L97.3210626,536.497429 C128.016009,565.388279 147.977276,579.83666 157.210788,579.83666 L161.705368,579.83666 C179.673322,576.596675 188.656559,569.124904 188.656559,557.419867 L188.656559,549.948096 C188.656559,544.465841 185.662147,539.982778 179.673322,536.497429 L166.195505,536.497429 C166.195505,546.456835 158.710956,551.44245 143.738895,551.44245 C143.738895,553.431966 141.736696,554.431159 137.748589,554.431159 L137.748589,549.948096 C143.233902,537.991784 150.721414,532.014366 160.206681,532.014366 L163.201093,535.003075 L175.178742,532.014366 C187.156391,534.500523 193.146696,540.47794 193.146696,549.948096 L193.146696,555.925513 C193.146696,568.376987 184.161979,577.343113 166.195505,582.825368 L152.722131,582.825368 L148.227551,579.83666 L145.233139,579.83666 L145.233139,581.331014 C152.468895,595.276843 157.961612,602.251974 161.705368,602.251974 C166.195505,602.251974 169.686024,607.726839 172.18433,618.691349 L172.18433,620.185704 C172.18433,632.140538 169.189918,641.108142 163.201093,647.085559 L160.206681,647.085559 C160.206681,641.108142 155.716544,631.637986 146.733307,618.691349 L146.733307,612.713932 C146.733307,609.221193 148.725139,605.240683 152.722131,600.75762 C143.981765,581.331014 119.032773,556.917315 77.8588641,527.531304 L77.8588641,532.014366 C80.8532763,532.014366 92.8309252,546.959387 113.793292,576.847951 C120.024986,598.760713 128.512116,612.713932 139.244315,618.691349 C155.213032,642.35122 163.201093,665.263174 163.201093,687.434603 C163.201093,713.335266 154.713963,734.257704 137.748589,750.200439 L136.249902,748.706085 C115.53633,766.638336 97.0693069,775.60594 80.8532763,775.60594 L71.8685588,775.60594 C40.4242687,775.60594 18.9613527,764.146267 7.48425344,741.234313 L4.48984122,726.289292 L4.48984122,718.817521 C4.48984122,695.65429 19.4619023,682.202146 49.4075053,678.468477 L50.9076733,678.468477 C78.8525588,682.202146 92.8309252,693.657384 92.8309252,712.840104 C89.836513,732.763349 79.8506962,742.728667 62.8853221,742.728667 L61.3866351,742.728667 C43.4186809,740.730283 34.4354443,732.763349 34.4354443,718.817521 C34.4354443,710.599311 39.9222382,704.119342 50.9076733,699.389437 L50.9076733,700.883791 C44.9188489,707.85301 41.9244366,714.82962 41.9244366,721.806229 C44.6656122,731.764157 49.6562992,736.749772 56.8964977,736.749772 C74.8644519,736.749772 83.8476885,729.774641 83.8476885,715.828812 L83.8476885,709.851395 C83.8476885,696.646092 73.364284,689.174321 52.4019176,687.434603 L47.9132611,687.434603 C29.1959634,687.434603 18.2105282,699.389437 14.9732458,723.300584 L14.9732458,724.794938 C14.9732458,749.950641 34.4354443,764.399022 73.364284,768.13269 L77.8588641,768.13269 C111.792574,768.13269 135.251765,749.201246 148.227551,711.345749 L151.221963,690.423311 C151.221963,672.986222 144.732589,650.569429 131.759765,623.174412 L127.266666,618.691349 L125.77094,618.691349 L125.77094,629.151829 C112.790711,659.040393 94.3266504,673.985414 70.3698718,673.985414 L64.3810473,673.985414 C37.1795817,673.985414 21.2064214,662.525742 16.4674901,639.612309 L16.4674901,638.117955 C20.4585588,618.188797 30.4428947,608.230869 46.4130931,608.230869 C62.8853221,608.230869 72.8622534,616.694443 76.3586962,633.634892 C71.8685588,647.580721 64.3810473,654.55733 53.9020855,654.55733 C44.6656122,654.55733 37.6786504,649.075075 32.9397191,638.117955 C32.9397191,629.648469 37.9259634,623.669574 47.9132611,620.185704 L49.4075053,621.680058 L49.4075053,623.174412 L40.4242687,632.140538 L40.4242687,639.612309 C42.9166504,644.592012 46.9106809,647.085559 52.4019176,647.085559 L55.3963298,647.085559 C64.3810473,647.085559 68.8741466,641.603304 68.8741466,630.646184 L68.8741466,627.657475 C64.6283603,619.683151 58.1404672,615.702641 49.4075053,615.702641 L44.9188489,615.702641 C35.1847878,615.702641 28.1948641,623.174412 23.9564824,638.117955 C23.9564824,654.307532 36.927826,663.76882 62.8853221,666.512165 L64.3810473,666.512165 C97.3210626,662.777018 113.793292,647.330923 113.793292,620.185704 L113.793292,614.208286 C113.793292,608.978786 105.802269,601.002984 89.836513,590.29714 C61.882742,564.145201 47.9132611,548.202466 47.9132611,542.476325 L46.4130931,542.476325 L46.4130931,546.959387 L52.4019176,560.408576 L50.9076733,561.90293 L49.4075053,561.90293 L19.4619023,508.10322 L13.4730779,473.731593 C13.4730779,449.319372 20.4585588,425.406747 34.4354443,401.999631 L34.4354443,400.503799 L32.9397191,396.020736 L31.4410321,396.020736 C31.4410321,410.463205 21.4581771,419.42933 1.49542901,422.920591 L1.49542901,421.426237 C5.48501679,416.195258 8.47942901,408.724965 10.4786656,399.009445 L17.967658,394.526382 L17.967658,391.537673 C14.9732458,391.537673 13.4730779,390.539959 13.4730779,388.548965 L19.4619023,385.560256 C12.2217038,380.827395 7.23397863,371.361673 4.48984122,357.166046 L-0.000296183206,352.682984 L1.49542901,351.188629 C13.9706656,355.16914 24.4525893,362.145749 32.9397191,372.111067 L31.4410321,379.582839 L28.4466198,379.582839 L26.9508947,378.088485 L25.4507267,378.088485 L23.9564824,379.582839 L23.9564824,381.077193 L26.9508947,384.065902 L28.4466198,384.065902 L34.4354443,376.59413 C21.4581771,349.191723 14.9732458,330.266191 14.9732458,319.805711 L14.9732458,294.40021 C14.9732458,276.713323 24.4525893,254.29653 43.4186809,227.151311 C46.4130931,222.167174 47.9132611,217.185993 47.9132611,212.207768 L47.9132611,210.713414 L43.4186809,210.713414 C33.6875817,210.713414 28.1948641,198.757102 26.9508947,174.847433 L20.9620702,167.374184 L22.4563145,165.879829 C41.4194443,173.598443 53.398574,184.058923 58.390742,197.262747 L58.390742,198.757102 C57.3926046,204.735997 54.3981924,207.724706 49.4075053,207.724706 L50.9076733,218.185186 L50.9076733,221.173894 L40.4242687,240.601978 L43.4186809,240.601978 C46.661887,229.888744 60.1352611,213.450846 83.8476885,191.28533 L113.793292,165.879829 L113.793292,158.408058 C113.793292,132.751281 100.811582,116.810024 74.8644519,110.587243 L65.8797344,109.092888 C37.9259634,112.576759 23.9564824,121.542885 23.9564824,135.991266 C27.1952458,151.929566 34.1836885,159.902412 44.9188489,159.902412 L52.4019176,159.902412 C63.3829099,158.156782 68.8741466,152.676005 68.8741466,143.464515 C68.8741466,133.499197 62.8853221,128.519494 50.9076733,128.519494 C46.4130931,130.259212 42.9166504,133.249399 40.4242687,137.48562 C40.4242687,143.959677 43.4186809,149.441932 49.4075053,153.924995 L49.4075053,155.419349 C43.4186809,155.419349 37.9259634,150.936286 32.9397191,141.970161 C32.9397191,129.016134 39.9222382,122.542077 53.9020855,122.542077 L55.3963298,122.542077 C69.3717344,125.530786 76.3586962,132.501483 76.3586962,143.464515 C76.3586962,155.419349 67.8715664,163.387761 50.9076733,167.374184 L41.9244366,167.374184 C35.6808947,167.374184 28.6939328,162.891121 20.9620702,153.924995 L16.4674901,138.981452 C16.4674901,118.059014 32.4362076,105.601627 64.3810473,101.619639 L74.8644519,101.619639 C90.3326198,101.619639 104.808574,112.081597 118.281948,133.002557 C123.272635,134.496911 125.77094,140.970968 125.77094,152.430641 L125.77094,156.913704 L127.266666,156.913704 L140.744482,140.475806 L137.748589,140.475806 C145.730727,119.798732 149.727719,106.850618 149.727719,101.619639 L149.727719,79.2043246 C149.727719,46.8222141 131.256253,23.9102598 94.3266504,10.4610712 L71.8685588,7.47236267 C33.9334137,12.9472274 14.9732458,26.8989684 14.9732458,49.3157608 L14.9732458,55.2931779 C14.9732458,74.2187093 26.9508947,85.1817417 50.9076733,88.1704503 L58.390742,88.1704503 C71.6168031,88.1704503 80.1024519,80.6986789 83.8476885,65.7536579 L83.8476885,58.2818865 C81.3493832,46.3270522 75.3605588,40.349635 65.8797344,40.349635 L59.8909099,40.349635 C49.6562992,40.349635 43.6674748,44.8326979 41.9244366,53.7988236 C41.9244366,62.7649493 45.4149557,70.2367208 52.4019176,76.215616 L50.9076733,77.7099703 C39.9222382,71.2300008 34.4354443,63.7582293 34.4354443,55.2931779 C34.4354443,43.8335055 43.4186809,36.3617341 61.3866351,32.8763855 C82.3475206,36.6130103 92.8309252,47.0734903 92.8309252,64.2593036 C92.8309252,78.9530484 82.3475206,89.9101684 61.3866351,97.136576 L49.4075053,98.6309303 C26.697658,98.6309303 11.7255969,86.1750217 4.48984122,61.270595 L4.48984122,55.2931779 C4.48984122,31.130755 16.9650779,14.1962179 41.9244366,4.482176 C53.9020855,1.49346743 64.8771542,-0.000886857143 74.8644519,-0.000886857143 L77.8588641,-0.000886857143 C98.566513,-0.000886857143 118.031673,9.95851886 136.249902,29.887677 L137.748589,29.887677 L131.759765,22.4159055 L133.25549,22.4159055 C153.218238,37.3594484 163.201093,60.2728808 163.201093,91.1591589 C163.201093,120.299806 149.727719,147.696302 122.776528,173.353079 C122.776528,187.297429 106.800406,212.70293 74.8644519,249.568104 L76.3586962,249.568104 C122.776528,215.942915 148.227551,190.538892 152.722131,173.353079 L146.733307,167.374184 L146.733307,159.902412 L160.206681,133.002557 L160.206681,128.519494 L164.69978,128.519494 C169.686024,138.728698 172.18433,147.696302 172.18433,155.419349 C172.18433,168.367464 166.691612,174.847433 155.716544,174.847433 C155.716544,177.584866 152.21862,184.058923 145.233139,194.274039 L149.727719,194.274039 L158.710956,192.779685 L160.206681,194.274039 L161.705368,194.274039 L163.201093,192.779685 L164.69978,192.779685 C179.169811,192.779685 188.656559,202.73909 193.146696,222.668248 L193.146696,222.668248 Z" id="Fill-1" fill="#373737" mask="url(#mask-2)"></path>
                </g>
            </g>
        </g>
    </g>
</svg>