<?xml version="1.0" encoding="UTF-8" standalone="no"?>
<svg width="168px" height="757px" viewBox="0 0 168 757" version="1.1" xmlns="http://www.w3.org/2000/svg" xmlns:xlink="http://www.w3.org/1999/xlink">
    <!-- Generator: Sketch 40.3 (33839) - http://www.bohemiancoding.com/sketch -->
    <title>ornamento dorado</title>
    <desc>Created with Sketch.</desc>
    <defs>
        <linearGradient x1="-1.11022302e-14%" y1="50%" x2="100%" y2="50%" id="linearGradient-1">
            <stop stop-color="#925F19" offset="0%"></stop>
            <stop stop-color="#D4AB33" offset="22.1739477%"></stop>
            <stop stop-color="#EFCA8A" offset="44.2442602%"></stop>
            <stop stop-color="#D4AB33" offset="69.658801%"></stop>
            <stop stop-color="#BE7D10" offset="100%"></stop>
        </linearGradient>
    </defs>
    <g id="Symbols" stroke="none" stroke-width="1" fill="none" fill-rule="evenodd" opacity="0.925023321">
        <g id="Footer" transform="translate(0.000000, -12.000000)">
            <g id="ornamento-dorado">
                <g transform="translate(84.000000, 390.500000) scale(-1, 1) rotate(90.000000) translate(-84.000000, -390.500000) translate(-294.500000, 306.500000)">
                    <polygon id="Clip-2" points="695.452979 0.59415933 566.989705 0.59415933 566.989705 43.439464 695.452979 43.439464 695.452979 0.59415933"></polygon>
                    <path d="M680.083183,8.28424471 L671.299679,11.5794524 L663.613,9.38284531 L663.613,8.28424471 L665.809618,8.28424471 L666.906443,9.38284531 L680.083183,7.18504995 L680.083183,8.28424471 Z M660.319557,19.2702507 L657.023145,20.3688513 L654.829496,20.3688513 L654.829496,19.2702507 L660.319557,17.0724554 L660.319557,19.2702507 Z M655.92632,6.08644935 L658.122939,6.08644935 L658.122939,10.4820401 L657.023145,10.4820401 L655.92632,7.18504995 L655.92632,6.08644935 Z M650.436259,17.0724554 L649.340028,17.0724554 C649.340028,14.8758483 647.14341,12.3144275 642.74958,9.38284531 L640.552961,11.5794524 L644.946792,18.171056 L643.849967,18.171056 C639.636665,12.3144275 636.713185,9.38284531 635.0629,9.38284531 L635.0629,8.28424471 L638.359906,4.98903707 L639.456731,4.98903707 C646.773447,10.3020098 650.436259,13.9620313 650.436259,15.9750431 L650.436259,17.0724554 Z M647.14341,23.6658415 C646.592919,27.3312104 645.496689,29.1588445 643.849967,29.1588445 L639.456731,29.1588445 C635.979791,26.9610491 633.049779,23.2992452 630.673227,18.171056 L629.573433,18.171056 L628.476608,19.2702507 L630.673227,28.0578672 L630.673227,29.1588445 C629.389936,31.7232361 627.193318,33.5508702 624.083372,34.6518475 C618.959711,34.6518475 616.399661,29.1588445 616.399661,18.171056 L616.399661,17.0724554 L618.593311,17.0724554 L618.593311,26.9610491 L622.986547,31.3530749 L625.183165,31.3530749 L627.379784,29.1588445 L627.379784,22.5654584 L624.083372,13.7772477 L628.476608,11.5794524 C634.3301,20.7372301 638.359906,25.8600719 640.552961,26.9610491 L642.74958,26.9610491 C644.946792,26.9610491 646.043023,24.7632537 646.043023,20.3688513 L647.14341,20.3688513 L647.14341,23.6658415 Z M613.103249,26.9610491 L612.006425,26.9610491 L610.9096,17.0724554 L612.006425,17.0724554 L613.103249,18.171056 L613.103249,26.9610491 Z M658.121751,0.594040499 L657.023145,1.6926411 L657.023145,0.594040499 L639.457325,0.594040499 L640.552961,1.6926411 L639.456731,1.6926411 L638.359906,2.7912417 L637.260112,2.7912417 L635.064088,0.594040499 L625.182572,0.594040499 L629.573433,2.7912417 L629.573433,4.98903707 C628.106645,7.18504995 624.083372,9.75181826 617.496486,12.678053 L614.203043,12.678053 L614.203043,11.5794524 C622.253153,8.6526235 626.27999,6.45661061 626.27999,4.98903707 L626.27999,1.6926411 C624.900497,1.6926411 623.484186,1.31237913 622.03462,0.594040499 L614.276679,0.594040499 C615.742279,1.61480623 617.546369,2.71281267 619.693104,3.89043646 C619.506638,5.1726323 616.213195,7.37042766 609.809807,10.4820401 L610.9096,13.7772477 L610.9096,15.9750431 C609.076413,15.6096351 607.246788,13.0482142 605.419539,8.28424471 L605.419539,7.18504995 C610.539637,6.63664089 613.103249,5.53804029 613.103249,3.89043646 C612.369262,2.42583371 611.453559,1.32663895 610.354953,0.594040499 L567.812175,0.594040499 L568.086529,1.6926411 L566.989705,6.08644935 L566.989705,8.28424471 L569.183354,10.4820401 L571.379972,10.4820401 L571.379972,7.18504995 L575.773209,7.18504995 C590.776605,7.18504995 599.930072,12.678053 603.222921,23.6658415 L603.222921,30.2562568 C603.222921,32.8242134 601.756727,36.4824524 598.829684,41.2416686 L598.829684,43.439464 L608.712982,43.439464 L615.299868,36.8460779 L622.986547,39.0438732 L624.083372,39.0438732 C629.939833,38.1300562 632.869845,35.9322608 632.869845,32.4540521 L638.359906,33.5508702 C647.14341,33.0042437 651.533084,30.4392578 651.533084,25.8600719 L653.729702,25.8600719 C657.573042,25.8600719 660.866485,24.7632537 663.613,22.5654584 C665.076224,18.171056 667.269873,15.9750431 670.199886,15.9750431 C684.839851,11.2158268 693.259924,7.18504995 695.452979,3.89043646 L695.452979,2.7912417 C694.392379,2.01170466 693.35672,1.28148284 692.342439,0.594040499 L658.121751,0.594040499 Z" id="Fill-1" fill="url(#linearGradient-1)"></path>
                    <path d="M0,0.594278162 C3.90866226,2.03511454 14.2913804,4.23053326 31.1641882,7.18528761 L32.2627943,7.18528761 L37.7528555,1.6922846 L37.7528555,0.594278162 L0,0.594278162 Z" id="Fill-4" fill="url(#linearGradient-1)"></path>
                    <path d="M748.388927,0.594278162 L714.266222,0.594278162 C714.179522,0.950773761 714.120137,1.31380511 714.120137,1.6922846 L712.583277,0.594278162 L698.635136,0.594278162 C698.26161,1.25914245 697.921933,1.97451029 697.649954,2.79147937 C697.649954,6.08609285 699.846572,8.65286116 704.239809,10.4822777 C709.359907,9.38308298 711.923519,7.91907439 711.923519,6.08609285 L718.513374,11.5790959 L727.296284,11.5790959 C730.956721,11.5790959 732.786345,10.8506565 732.786345,9.38308298 C748.886566,7.37007117 756.943208,5.53768379 756.943208,3.89007997 C756.943208,3.03746133 754.074956,1.93767241 748.388927,0.594278162" id="Fill-6" fill="url(#linearGradient-1)"></path>
                    <path d="M38.8519366,0.594278162 L44.3408101,6.08609285 L45.4394162,6.08609285 C49.4609083,6.08609285 52.0257081,4.25905291 53.1243141,0.594278162 L38.8519366,0.594278162 Z" id="Fill-9" fill="url(#linearGradient-1)"></path>
                    <path d="M496.716387,48.9327047 L495.619563,50.0301169 L498.913006,53.3253246 L501.109624,53.3253246 L501.109624,52.2279123 C501.109624,51.1305 499.64343,50.0301169 496.716387,48.9327047" id="Fill-11" fill="url(#linearGradient-1)"></path>
                    <path d="M390.209735,47.8321433 L390.209735,52.227734 L394.602972,55.5229417 C398.259845,55.5229417 400.456464,54.4255294 401.189857,52.227734 L401.189857,48.9325264 L396.79959,44.5369357 C393.136184,44.5369357 390.939566,45.6373188 390.209735,47.8321433" id="Fill-13" fill="url(#linearGradient-1)"></path>
                    <polygon id="Clip-16" points="154.141024 167.579668 599.929834 167.579668 599.929834 0.594278162 154.141024 0.594278162"></polygon>
                    <path d="M574.673177,43.4397016 L570.28291,43.4397016 C565.15628,43.4397016 560.766606,41.6120675 557.106763,37.9466986 L557.106763,36.8463156 L570.28291,40.144494 L573.576353,40.144494 L586.753094,37.9466986 L587.849918,37.9466986 C587.849918,39.7778977 583.459651,41.6120675 574.673177,43.4397016 L574.673177,43.4397016 Z M565.889673,54.4257077 L560.399612,68.7063272 C555.639976,68.7063272 550.149915,65.0445232 543.930023,57.7209153 L543.930023,55.5231199 L545.029816,55.5231199 L557.106763,64.3107364 C561.5,61.3856901 563.693055,55.8932812 563.693055,47.8323216 L565.889673,50.0301169 L565.889673,54.4257077 Z M526.363015,58.8177334 L521.969778,58.8177334 L521.969778,57.7209153 C537.343137,52.9616991 545.029816,47.4686961 545.029816,41.2419063 L548.323259,41.2419063 L548.323259,42.3393186 C541.36641,53.3253246 534.049694,58.8177334 526.363015,58.8177334 L526.363015,58.8177334 Z M451.699964,43.4397016 L445.109515,43.4397016 L445.109515,42.3393186 C449.319849,42.3393186 452.246298,40.5116845 453.893019,36.8463156 L453.893019,34.651491 C453.893019,31.9035041 452.426232,28.9784577 449.502752,25.8603095 L449.502752,22.5651019 L450.599577,22.5651019 C454.260013,29.5256784 456.089638,34.651491 456.089638,37.9466986 L451.699964,43.4397016 Z M458.286256,78.5955151 L462.679493,78.5955151 L464.873142,80.7897455 C458.46619,80.7897455 454.442916,82.6239153 452.796195,86.2827485 C452.796195,83.3577021 454.62285,80.7897455 458.286256,78.5955151 L458.286256,78.5955151 Z M451.699964,66.5085318 C451.699964,70.1739007 443.643322,72.7353216 427.543101,74.1993302 L424.249658,70.9047167 L424.249658,66.5085318 L427.543101,63.2139183 L428.639926,63.2139183 L426.443307,66.5085318 L426.443307,68.7063272 L429.739719,72.0015348 L433.033162,72.0015348 L437.422836,67.609509 L437.422836,64.3107364 C435.593211,61.202689 433.033162,59.0048936 429.739719,57.7209153 C422.602937,57.7209153 418.2097,62.8502928 416.562979,73.1025121 L409.973124,70.9047167 L412.169742,59.9187107 L409.973124,26.9606926 C415.096191,23.2988887 417.659803,19.6388672 417.659803,15.9752807 C421.319646,20.5538726 423.149865,26.0468756 423.149865,32.4536956 C423.149865,39.7778977 420.219852,46.7349093 414.36636,53.3253246 L414.36636,54.4257077 L416.562979,56.623503 L422.05304,56.623503 C431.386441,56.623503 437.973327,53.3253246 441.816666,46.7349093 C448.402958,47.8323216 451.699964,50.7639037 451.699964,55.5231199 L451.699964,66.5085318 Z M429.739719,103.862141 L428.639926,103.862141 L431.933369,91.7757515 L428.639926,78.5955151 L430.836544,78.5955151 C436.506539,78.5955151 442.729994,77.4945378 449.502752,75.2967425 L450.599577,75.2967425 C446.756237,88.3005136 439.799982,97.818946 429.739719,103.862141 L429.739719,103.862141 Z M423.149865,97.2687545 C423.149865,104.228737 418.026203,108.254761 407.779475,109.355144 L400.092795,109.355144 L382.522818,106.059936 L382.522818,104.959553 C395.879493,94.3437081 404.299566,84.4551144 407.779475,75.2967425 C415.829585,76.5807208 419.856422,78.0447294 419.856422,79.6923332 L419.856422,81.8901286 L416.562979,80.7897455 C409.789627,80.7897455 405.03296,83.7213276 402.289414,89.5809269 L402.289414,92.8761346 C402.289414,100.200337 405.946287,103.862141 413.269536,103.862141 C417.659803,103.862141 419.856422,101.30072 419.856422,96.1713422 L419.856422,93.9735469 L415.463185,89.5809269 L412.169742,89.5809269 C409.973124,89.9481174 408.876299,92.5095383 408.876299,97.2687545 L407.779475,97.2687545 L406.679681,96.1713422 C406.679681,90.4983089 408.876299,87.2031013 413.269536,86.2827485 C417.112876,86.2827485 420.406319,88.4805438 423.149865,92.8761346 L423.149865,97.2687545 Z M394.603328,114.848147 L400.093389,114.848147 L400.093389,113.747764 L394.603328,113.747764 L394.603328,114.848147 Z M408.876299,123.636357 L404.483063,126.930971 L397.896177,125.834153 L396.799352,125.834153 L395.699559,126.930971 L398.993002,131.327156 L398.993002,136.819564 L395.699559,140.114772 L391.309885,140.114772 L383.623206,133.524951 L382.522818,133.524951 L386.916648,144.510363 C385.08643,149.453174 382.522818,152.384756 379.229969,153.298574 L378.133144,153.298574 L383.623206,145.607775 C381.24309,138.287138 379.409903,134.621769 378.133144,134.621769 L384.719436,129.128766 C384.719436,132.423974 388.016442,135.719181 394.603328,139.017954 L397.896177,135.719181 L397.896177,133.524951 C394.233365,128.398544 391.309885,125.834153 389.113267,125.834153 L389.113267,121.437968 L390.209497,120.34115 L403.386238,124.733175 L405.582856,124.733175 L408.876299,122.538945 L408.876299,123.636357 Z M375.936526,157.691193 L373.739908,155.496369 L378.133144,155.496369 L375.936526,157.691193 Z M372.643083,153.298574 L371.54329,153.298574 C367.153022,150.550587 364.956404,147.255379 364.956404,143.40998 L369.34964,134.621769 L369.34964,133.524951 L368.249847,132.423974 L358.367737,141.212184 C353.976281,141.212184 351.048051,139.017954 349.584826,134.621769 C349.584826,131.693752 351.048051,129.498927 353.976281,128.031948 L355.074888,128.031948 C352.878269,130.77637 351.781445,133.344327 351.781445,135.719181 L351.781445,137.916977 L357.271506,139.017954 L368.249847,130.226178 L372.643083,132.423974 L368.249847,144.510363 L368.249847,150.003366 C371.176296,150.370556 372.643083,151.470939 372.643083,153.298574 L372.643083,153.298574 Z M348.48622,125.834153 L347.388208,125.834153 C343.726584,125.834153 341.529965,124.733175 340.801322,122.538945 L340.801322,118.143354 C340.801322,116.132125 345.192777,114.668116 353.976281,113.747764 L357.271506,113.747764 L357.271506,114.848147 C347.019433,115.581933 341.898147,117.412538 341.898147,120.34115 L341.898147,121.437968 L344.094765,124.733175 L360.564355,120.34115 L362.761567,122.538945 L362.761567,123.636357 L360.564355,125.834153 L359.466343,125.834153 L360.564355,124.733175 L360.564355,123.636357 L359.466343,122.538945 L348.48622,125.834153 Z M328.723188,99.4665499 L328.723188,95.0739299 C328.723188,88.4805438 331.647855,85.1853362 337.506098,85.1853362 C343.361371,85.919123 346.291383,88.4805438 346.291383,92.8761346 L341.898147,98.3691376 L342.996159,92.8761346 L342.996159,90.6783392 C342.996159,89.5809269 341.529965,88.4805438 338.604704,87.3831316 C335.311261,87.3831316 332.746461,89.5809269 330.918025,93.9735469 C330.918025,99.8367111 333.843286,102.761758 339.702716,102.761758 L340.801322,102.761758 C346.471317,102.761758 349.76476,99.1029244 350.682839,91.7757515 C350.682839,83.7213276 344.459384,79.6923332 332.016037,79.6923332 L333.114643,76.3971255 L334.213249,76.3971255 L345.192777,75.2967425 C346.106105,82.4409143 354.526178,92.325943 370.446465,104.959553 L370.446465,106.059936 C362.761567,108.254761 355.074888,109.355144 347.388208,109.355144 L344.094765,109.355144 C337.686626,109.355144 332.566527,106.059936 328.723188,99.4665499 L328.723188,99.4665499 Z M326.526569,72.0015348 L325.427963,73.1025121 L317.743065,73.1025121 C305.296155,69.6237092 299.076264,66.695692 299.076264,64.3107364 L299.076264,55.5231199 C299.076264,50.4002782 302.371488,47.8323216 308.95778,47.8323216 L310.056386,47.8323216 C314.264344,52.9616991 320.487799,55.5231199 328.723188,55.5231199 L335.311261,53.3253246 C330.184631,44.1734884 327.624582,37.2164768 327.624582,32.4536956 C327.624582,25.1330585 330.184631,18.5414549 335.311261,12.6782906 C335.311261,19.2698942 338.236523,24.0326754 344.094765,26.9606926 L340.801322,52.2279123 L341.898147,70.9047167 L336.408086,72.0015348 L335.311261,72.0015348 C333.114643,61.7493156 329.087806,56.623503 323.233127,56.623503 C318.656393,58.0910766 316.096344,59.9187107 315.546447,62.116506 L315.546447,67.609509 L317.743065,69.8037395 L322.13452,69.8037395 L325.427963,66.5085318 L325.427963,65.4117137 L323.233127,62.116506 L324.331139,62.116506 C325.793176,62.116506 327.2564,64.3107364 328.723188,68.7063272 L327.624582,68.7063272 L326.526569,72.0015348 Z M322.13452,101.664345 L322.13452,102.761758 L319.937902,102.761758 C307.861549,91.9623175 301.272882,82.4409143 300.17487,74.1993302 L300.17487,73.1025121 C304.931537,75.2967425 312.618217,77.1309123 323.233127,78.5955151 L319.937902,90.6783392 L322.13452,101.664345 Z M305.664931,97.2687545 L304.566325,96.1713422 C298.159373,84.6351447 293.402705,78.4148906 290.29276,77.4945378 L288.096141,77.4945378 L285.901304,79.6923332 L285.901304,81.8901286 L291.391366,90.6783392 L291.391366,91.7757515 C286.814632,91.7757515 283.88462,87.750322 282.60608,79.6923332 L286.998129,74.1993302 L288.096141,74.1993302 L292.48819,75.2967425 C294.49953,75.2967425 299.62616,82.6239153 307.861549,97.2687545 L305.664931,97.2687545 Z M283.704686,29.158488 L289.194747,34.651491 C285.531341,34.651491 283.336505,33.5511079 282.60608,31.3533125 L282.60608,23.6660791 L292.48819,11.5790959 L295.782821,11.5790959 L295.782821,12.6782906 C287.72796,18.3560772 283.704686,23.8490802 283.704686,29.158488 L283.704686,29.158488 Z M270.527945,18.1712936 L274.921182,23.6660791 L272.724564,23.6660791 C270.893158,23.6660791 269.431121,21.1046582 268.333109,15.9752807 C268.333109,12.4982603 273.453207,8.10385794 283.704686,2.79147937 L286.998129,2.79147937 L286.998129,3.89007997 C276.018007,8.10385794 270.527945,12.8630742 270.527945,18.1712936 L270.527945,18.1712936 Z M306.762943,44.5371139 L302.371488,44.5371139 L299.078045,41.2425004 C304.198737,42.1592883 306.762943,43.2596714 306.762943,44.5371139 L306.762943,44.5371139 Z M296.881427,33.5511079 C297.794754,27.5108842 301.088197,21.6512848 306.762943,15.9752807 L307.861549,15.9752807 L307.861549,17.0720989 C302.001525,25.496684 299.076264,31.3533125 299.076264,34.651491 L299.076264,41.2401238 L296.881427,39.0441109 L296.881427,33.5511079 Z M318.841078,22.5651019 L318.841078,23.6660791 L314.447841,33.5511079 C314.447841,44.5371139 319.204508,50.0301169 328.723188,50.0301169 L328.723188,52.2279123 L326.526569,52.2279123 C318.656393,52.2279123 313.899726,46.7349093 312.253004,35.7489033 C314.07966,26.9606926 316.276278,22.5651019 318.841078,22.5651019 L318.841078,22.5651019 Z M340.801322,14.876086 L341.898147,13.7768912 C341.898147,15.9752807 343.361371,17.8076681 346.291383,19.2698942 L348.48622,19.2698942 L355.074888,18.1712936 L356.1729,18.1712936 L356.1729,19.2698942 L348.48622,21.4676896 C344.094765,21.4676896 341.164753,19.2698942 339.702716,14.876086 L340.801322,14.876086 Z M355.074888,3.89007997 L355.074888,6.08668701 C350.863366,6.08668701 347.568142,7.18528761 345.192777,9.38308298 L342.996159,9.38308298 C345.92142,5.7230615 349.949445,3.89007997 355.074888,3.89007997 L355.074888,3.89007997 Z M363.857798,19.2698942 L363.857798,21.4676896 L361.662961,21.4676896 C361.662961,24.9464925 360.929567,27.5108842 359.466343,29.158488 L359.466343,30.2559003 L362.761567,33.5511079 L367.153022,33.5511079 C370.809896,31.5398786 372.643083,28.6082964 372.643083,24.7628972 L373.739908,24.7628972 L373.739908,25.8603095 C372.823017,33.1874824 369.896568,36.8463156 364.956404,36.8463156 C359.831555,33.9212692 357.271506,31.3533125 357.271506,29.158488 C357.271506,25.3130888 359.466343,22.0149103 363.857798,19.2698942 L363.857798,19.2698942 Z M367.153022,9.38308298 L368.249847,9.38308298 L370.446465,11.5790959 L367.153022,11.5790959 L367.153022,9.38308298 Z M374.839702,11.5790959 L377.03632,11.5790959 L379.229969,13.7768912 L379.229969,15.9752807 L374.839702,14.876086 L374.839702,11.5790959 Z M386.916648,33.5511079 C389.293201,33.5511079 391.856219,32.4536956 394.603328,30.2559003 C394.603328,26.9606926 392.406116,22.2014764 388.016442,15.9752807 L390.209497,15.9752807 L395.699559,24.7628972 L395.699559,28.0581049 C395.699559,32.8238569 392.769547,35.7489033 386.916648,36.8463156 C381.790018,35.1987117 379.229969,31.9035041 379.229969,26.9606926 L379.229969,25.8603095 L385.819824,33.5511079 L386.916648,33.5511079 Z M379.229969,47.8323216 L382.522818,41.2419063 C388.379873,41.2419063 394.603328,39.0441109 401.18962,34.651491 C405.582856,34.651491 407.779475,40.144494 407.779475,51.1305 L404.483063,67.609509 C396.066552,67.609509 387.646479,61.0155288 379.229969,47.8323216 L379.229969,47.8323216 Z M348.48622,68.7063272 C346.291383,68.7063272 345.192777,64.6808977 345.192777,56.623503 L345.192777,44.5371139 C348.303317,39.4142722 350.863366,36.8463156 352.878269,36.8463156 L363.857798,41.2419063 L364.956404,41.2419063 L366.056198,40.144494 C369.163174,41.061876 371.359793,42.8895101 372.643083,45.637497 C372.093186,52.047882 364.772907,59.7386804 350.682839,68.7063272 L348.48622,68.7063272 Z M349.584826,74.1993302 C360.37967,68.3432958 369.163174,61.0155288 375.936526,52.2279123 C384.719436,62.6631326 393.869934,69.9908996 403.386238,74.1993302 C396.612886,87.3831316 387.466545,96.905129 375.936526,102.761758 C358.367737,91.412126 349.584826,81.8901286 349.584826,74.1993302 L349.584826,74.1993302 Z M389.113267,112.650351 C389.113267,118.513516 385.08643,124.36955 377.03632,130.226178 C370.446465,126.200749 366.056198,121.437968 363.857798,115.945559 L363.857798,113.747764 L375.936526,126.930971 L378.133144,126.930971 L389.113267,112.650351 Z M377.03632,121.437968 L375.936526,121.437968 C373.919842,120.524151 371.359793,117.229537 368.249847,111.552939 L373.739908,108.254761 L374.839702,108.254761 L383.623206,110.452556 C383.253243,113.93433 381.056624,117.592569 377.03632,121.437968 L377.03632,121.437968 Z M396.799352,14.876086 C400.092795,17.8076681 403.016275,19.2698942 405.582856,19.2698942 L408.876299,19.2698942 L412.169742,14.876086 C412.169742,11.7644736 409.973124,9.56846069 405.582856,8.28448238 L405.582856,7.18528761 L406.679681,7.18528761 C410.523021,7.18528761 412.719639,9.38308298 413.269536,13.7768912 C412.536142,19.6388672 409.973124,22.5651019 405.582856,22.5651019 C399.722832,20.5538726 396.066552,17.9912634 394.603328,14.876086 L396.799352,14.876086 Z M436.326605,40.144494 L436.326605,32.4536956 L434.129987,29.158488 L434.129987,25.8603095 L435.229781,25.8603095 L438.523223,39.0441109 C438.523223,46.554879 433.033162,51.3140952 422.05304,53.3253246 L422.05304,51.1305 C430.466581,51.1305 435.229781,47.4686961 436.326605,40.144494 L436.326605,40.144494 Z M430.836544,18.1712936 L433.033162,18.1712936 L430.836544,20.369089 L428.639926,20.369089 L430.836544,18.1712936 Z M434.129987,17.0720989 L437.422836,15.9752807 L438.523223,15.9752807 L438.523223,17.0720989 L435.229781,18.1712936 L434.129987,18.1712936 L434.129987,17.0720989 Z M446.209903,9.38308298 L446.209903,11.5790959 L442.912897,12.6782906 L446.209903,9.38308298 Z M469.266378,23.6660791 L469.266378,24.7628972 L458.286256,11.5790959 C462.493027,13.0484519 466.152869,17.0720989 469.266378,23.6660791 L469.266378,23.6660791 Z M465.972935,3.89007997 L467.06976,3.89007997 C471.2795,3.89007997 476.769561,7.91907439 483.539944,15.9752807 L483.539944,18.1712936 C483.539944,23.2988887 480.976331,25.8603095 475.853264,25.8603095 L475.853264,23.6660791 C480.246501,23.6660791 482.443119,21.8378509 482.443119,18.1712936 C482.443119,14.1458642 476.953058,9.75146176 465.972935,4.98927473 L465.972935,3.89007997 Z M480.246501,7.18528761 L482.443119,7.18528761 L493.423241,11.5790959 L495.61986,11.5790959 C498.362812,11.5790959 501.289855,10.1168698 504.40277,7.18528761 L505.499594,7.18528761 L505.499594,9.38308298 L495.61986,13.7768912 C492.873344,13.7768912 487.749683,11.9492571 480.246501,8.28448238 L480.246501,7.18528761 Z M470.363203,30.2559003 L465.972935,34.651491 L461.579699,34.651491 L461.579699,33.5511079 C465.789439,33.5511079 468.349488,31.3533125 469.266378,26.9606926 L470.363203,26.9606926 L470.363203,30.2559003 Z M473.659615,79.6923332 L480.246501,76.3971255 C483.906344,78.0447294 485.736562,79.8759284 485.736562,81.8901286 L484.639737,81.8901286 L483.539944,82.9875408 C483.539944,80.7897455 482.80655,79.6923332 481.343325,79.6923332 L478.049882,79.6923332 L474.75644,81.8901286 L473.659615,81.8901286 L473.659615,79.6923332 Z M483.539944,87.3831316 L480.246501,90.6783392 L478.049882,88.4805438 L480.246501,86.2827485 L483.539944,86.2827485 L483.539944,87.3831316 Z M487.93318,85.1853362 L491.226623,81.8901286 L493.423241,81.8901286 L508.793037,87.3831316 L508.793037,88.4805438 L505.499594,89.5809269 L494.520066,85.1853362 L487.93318,86.2827485 L487.93318,85.1853362 Z M278.214625,79.6923332 L272.724564,76.3971255 L270.527945,76.3971255 L268.333109,78.5955151 L268.333109,81.8901286 L269.431121,82.9875408 L265.037884,84.0879239 L259.547823,81.8901286 L246.372864,85.1853362 L245.274258,85.1853362 L254.057762,78.5955151 C258.814429,78.5955151 262.474866,79.6923332 265.037884,81.8901286 L267.234503,79.6923332 L267.234503,78.5955151 L266.13649,77.4945378 L267.234503,77.4945378 C267.234503,74.5694914 268.333109,73.1025121 270.527945,73.1025121 L278.214625,76.3971255 L278.214625,79.6923332 Z M207.94303,50.0301169 L209.041042,53.3253246 C201.903072,61.3856901 196.41301,65.4117137 192.571452,65.4117137 C187.444822,55.1594944 184.884773,48.5655142 184.884773,45.637497 C184.884773,44.3570836 187.081391,42.8895101 191.472846,41.2419063 L192.571452,41.2419063 L192.571452,42.3393186 L189.276228,45.637497 C191.472846,55.1594944 193.299501,59.9187107 194.766289,59.9187107 L196.962907,59.9187107 L207.94303,50.0301169 Z M204.647805,36.8463156 L205.746411,36.8463156 L206.844424,37.9466986 C217.824546,49.6664914 226.972668,55.5231199 234.294729,55.5231199 L234.294729,56.623503 L226.60805,56.623503 C216.177824,52.7781038 208.856357,46.9185045 204.647805,39.0441109 L204.647805,36.8463156 Z M178.296105,41.2419063 L178.296105,40.144494 C172.985978,40.144494 170.061311,39.0441109 169.512601,36.8463156 L178.296105,36.8463156 C181.954761,36.8463156 187.081391,35.3852778 193.667683,32.4536956 L194.766289,33.5511079 C194.766289,36.48269 189.276228,39.0441109 178.296105,41.2419063 L178.296105,41.2419063 Z M596.633422,17.0720989 L595.536598,17.0720989 L595.536598,22.5651019 C592.606586,28.4282662 588.216318,31.3533125 582.359857,31.3533125 L566.990061,24.7628972 C562.776758,24.7628972 558.383522,26.2304708 553.81332,29.158488 C549.600018,19.6388672 542.283301,14.876086 531.853076,14.876086 L530.753282,14.876086 L529.656457,15.9752807 L528.559633,14.876086 C520.50299,14.876086 516.479717,15.9752807 516.479717,18.1712936 C509.709928,18.1712936 490.309732,33.5511079 458.286256,64.3107364 L457.189431,64.3107364 L456.089638,51.1305 L456.089638,47.8323216 C459.016681,44.5371139 460.482874,41.9756931 460.482874,40.144494 L462.679493,40.144494 C470.729603,39.2306769 474.75644,36.2990948 474.75644,31.3533125 C481.159828,31.3533125 485.916496,26.9606926 489.030005,18.1712936 C496.166193,18.1712936 500.560024,17.4422601 502.206745,15.9752807 C510.989656,9.38308298 519.406166,6.08668701 527.459839,6.08668701 L553.81332,6.08668701 L554.909551,7.18528761 L556.009939,11.5790959 C556.009939,13.7768912 556.7368,14.876086 558.202994,14.876086 L561.5,14.876086 C563.326655,14.876086 564.792849,11.9492571 565.889673,6.08668701 L564.792849,1.6922846 L564.792849,0.594278162 L510.475983,0.594278162 C512.106077,1.32093502 513.379866,1.6922846 514.283098,1.6922846 L514.283098,3.89007997 L509.892831,4.98927473 C509.892831,3.89007997 508.794225,2.42547722 506.597607,0.594278162 L474.041455,0.594278162 C473.791448,1.02147872 473.659615,1.39045167 473.659615,1.6922846 L470.365578,0.594278162 L469.265785,0.594278162 L468.169554,1.6922846 L468.169554,0.594278162 L452.246298,0.594278162 L453.893019,2.79147937 L447.306134,9.38308298 L447.306134,7.18528761 L448.402958,6.08668701 C450.599577,6.08668701 451.699964,5.35765351 451.699964,3.89007997 L451.699964,1.6922846 L450.9155,0.594278162 L445.440879,0.594278162 C445.705732,0.959091991 445.978305,1.3227175 446.209903,1.6922846 L446.209903,2.79147937 C442.729994,7.55544888 435.776114,12.3146651 425.346483,17.0720989 L424.249658,15.9752807 C435.043315,10.3016533 441.266176,5.90606258 442.912897,2.79147937 L442.912897,1.6922846 C442.610632,1.31439927 442.314899,0.952556239 442.020354,0.594278162 L432.018882,0.594278162 C432.369248,1.28172051 432.708331,2.01134817 433.033162,2.79147937 L423.149865,10.4822777 L419.856422,10.4822777 L419.856422,9.38308298 C424.97652,5.53768379 427.543101,2.97626292 427.543101,1.6922846 C427.543101,1.34113644 427.43621,0.972757656 427.274685,0.594278162 L366.056198,0.594278162 L366.056198,3.89007997 L363.857798,3.89007997 L363.857798,0.594278162 L324.644093,0.594278162 L323.233127,1.6922846 C323.233127,3.33988843 326.157794,5.1722758 332.016037,7.18528761 L332.016037,9.38308298 L328.723188,9.38308298 C322.863757,6.63687855 319.570315,3.71064385 318.841671,0.594278162 L310.056386,0.594278162 L310.056386,2.79147937 C312.80112,6.27147056 318.291181,10.3016533 326.526569,14.876086 C321.216442,14.876086 314.264344,10.4822777 305.664931,1.6922846 C305.930972,1.32449998 306.235612,0.96028031 306.524813,0.594278162 L301.272882,0.594278162 L301.272882,2.79147937 L311.154398,11.5790959 L324.331139,20.369089 L322.13452,20.369089 C313.899726,16.5236898 305.844865,10.6652788 297.978251,2.79147937 C297.978251,2.07551737 298.102364,1.34291892 298.34287,0.594278162 L243.406628,0.594278162 C243.196408,0.972163496 243.078233,1.33935396 243.078233,1.6922846 C243.078233,3.71004969 247.101507,6.63687855 255.156368,10.4822777 L258.450999,10.4822777 C263.022981,7.55544888 266.686387,6.08668701 269.431121,6.08668701 L270.527945,6.08668701 C265.952993,10.4822777 261.924375,12.6782906 258.450999,12.6782906 L236.491348,2.79147937 L236.491348,0.594278162 L187.081391,0.594278162 L187.081391,10.4822777 L189.276228,12.6782906 L195.864301,12.6782906 C196.594726,6.8216621 197.69155,3.89007997 199.157744,3.89007997 L224.412619,3.89007997 L233.196123,4.98927473 C247.286192,13.0484519 256.069696,17.0720989 259.547823,17.0720989 L262.843048,17.0720989 C262.843048,19.2698942 264.669703,22.5651019 268.333109,26.9606926 C274.371285,26.9606926 278.394559,30.2559003 280.411243,36.8463156 C289.922797,38.8640806 294.684808,41.4255015 294.684808,44.5371139 L294.684808,48.9327047 L293.586202,62.116506 C290.841469,62.116506 287.548026,60.2888719 283.704686,56.623503 C256.803089,26.5940963 235.941451,11.5790959 221.117989,11.5790959 C205.746411,14.6960557 198.06092,19.8188975 198.06092,26.9606926 L191.472846,24.7628972 L185.982785,24.7628972 L177.199281,26.9606926 L168.414589,26.9606926 C165.121146,26.9606926 161.093122,24.7628972 156.336455,20.369089 L155.23963,20.369089 L154.141024,21.4676896 C154.141024,34.2848947 163.28974,41.9756931 181.59133,44.5371139 L181.59133,51.1305 C186.162719,59.7386804 189.456162,67.7925101 191.472846,75.2967425 L195.864301,70.9047167 C207.574848,61.5663145 213.433091,56.0733115 213.433091,54.4257077 C218.554377,58.0910766 223.314607,59.9187107 227.706062,59.9187107 C238.138069,59.9187107 247.651404,56.2563126 256.25438,48.9327047 L256.25438,47.8323216 L255.156368,46.7349093 L244.176246,50.0301169 L240.882803,50.0301169 C238.318003,50.0301169 234.659348,48.2024828 229.90268,44.5371139 C220.569873,32.8238569 213.247812,26.9606926 207.94303,26.9606926 L206.844424,26.9606926 L205.746411,28.0581049 L202.452968,26.9606926 C205.562914,21.1046582 209.95437,18.1712936 215.627928,18.1712936 L221.117989,18.1712936 C230.816008,18.1712936 242.161343,26.2304708 255.156368,42.3393186 C267.049818,54.4257077 280.226559,64.3107364 294.684808,72.0015348 L288.096141,70.9047167 L279.313231,73.1025121 L270.527945,69.8037395 L267.234503,69.8037395 L259.547823,75.2967425 C253.324962,75.2967425 246.372864,77.8646991 238.686185,82.9875408 C234.294729,82.9875408 231.364717,80.7897455 229.90268,76.3971255 C229.90268,72.0015348 232.098111,69.0764884 236.491348,67.609509 L241.981409,69.8037395 L243.078233,69.8037395 L244.176246,68.7063272 C244.176246,67.2423186 241.981409,66.1449063 237.588172,65.4117137 C232.827942,65.4117137 229.169287,67.609509 226.60805,72.0015348 L226.60805,79.6923332 C228.61939,83.9078936 233.376057,87.9333231 240.882803,91.7757515 C259.179642,91.7757515 274.551219,93.6099213 286.998129,97.2687545 C306.029549,108.987953 321.036508,114.848147 332.016037,114.848147 L336.408086,114.848147 L335.311261,120.34115 C336.408086,126.930971 339.332753,130.226178 344.094765,130.226178 C344.094765,139.017954 348.118039,144.510363 356.1729,146.705187 L360.564355,145.607775 C360.564355,149.823336 362.761567,153.118543 367.153022,155.496369 C371.176296,163.554358 373.739908,167.579787 374.839702,167.579787 L375.936526,167.579787 C384.899964,156.777376 390.026594,149.453174 391.309885,145.607775 C397.34628,145.607775 402.102947,141.212184 405.582856,132.423974 C412.169742,128.765735 415.463185,124.36955 415.463185,119.240172 L414.36636,115.945559 L414.36636,114.848147 L419.856422,115.945559 L435.229781,112.650351 C454.260013,100.200337 471.093034,93.9735469 485.736562,93.9735469 L490.129798,95.0739299 L491.226623,93.9735469 L494.520066,95.0739299 C512.269977,95.0739299 522.149712,89.2143306 524.166396,77.4945378 C523.250099,70.1739007 519.953093,66.5085318 514.283098,66.5085318 L505.499594,66.5085318 L505.499594,69.8037395 L514.283098,69.8037395 C516.479717,70.353931 518.306372,72.9218876 519.77316,77.4945378 C517.393044,81.8901286 513.736171,84.0879239 508.793037,84.0879239 L495.61986,79.6923332 L489.030005,79.6923332 C489.030005,75.2967425 486.833386,73.1025121 482.443119,73.1025121 C474.386477,74.1993302 470.363203,76.0305292 470.363203,78.5955151 L463.776317,73.1025121 L454.992813,75.2967425 L454.992813,74.1993302 L458.286256,70.9047167 C464.689645,69.4401139 473.109718,63.9471109 483.539944,54.4257077 C505.316691,31.3533125 521.052887,19.6388672 530.753282,19.2698942 C543.196629,20.7374678 549.420084,24.3992717 549.420084,30.2559003 L548.323259,31.3533125 L547.222872,30.2559003 C542.833198,30.2559003 537.343137,32.8238569 530.753282,37.9466986 C524.716293,48.2024828 516.659651,53.3253246 506.599982,53.3253246 L501.109921,53.3253246 L501.109921,54.4257077 C507.87674,60.2888719 515.932789,63.2139183 525.263221,63.2139183 C533.3163,62.3001013 537.343137,60.8354985 537.343137,58.8177334 L541.733404,63.2139183 C550.699811,69.6237092 556.556273,74.7501159 559.303382,78.5955151 L560.399612,78.5955151 C562.596231,78.5955151 563.693055,76.3971255 563.693055,72.0015348 C568.816716,59.9187107 571.379735,51.8642868 571.379735,47.8323216 L573.576353,47.8323216 C587.482924,47.8323216 596.266428,38.6804854 599.929834,20.369089 L596.633422,17.0720989 Z" id="Fill-15" fill="url(#linearGradient-1)"></path>
                    <path d="M385.819646,82.9876597 L384.719852,82.9876597 L381.426409,79.692452 L384.719852,76.3972444 L385.819646,76.3972444 L389.113089,79.692452 L385.819646,82.9876597 Z M379.229791,74.199449 L373.73973,74.199449 L373.73973,70.9042414 L375.936348,67.6096279 L379.229791,68.706446 L379.229791,74.199449 Z M378.132966,90.678458 L377.036142,91.7758703 C374.10613,91.7758703 372.272942,90.3148325 371.543111,87.3832504 L374.839523,85.185455 L375.936348,85.185455 L378.132966,87.3832504 L378.132966,90.678458 Z M366.056019,82.9876597 L363.858213,79.692452 L363.858213,78.5950397 L366.056019,75.2968613 L370.446287,77.4946567 C370.446287,80.4262388 368.979499,82.2574378 366.056019,82.9876597 L366.056019,82.9876597 Z M392.406531,79.692452 C392.406531,75.116831 389.842919,72.5518452 384.719852,72.0016536 C382.706137,67.0588422 380.509518,64.130825 378.132966,63.213443 L374.839523,63.213443 L369.349462,68.706446 L359.466164,76.3972444 L359.466164,81.8902474 C360.016061,84.0880427 362.57611,85.9192418 367.152844,87.3832504 C369.162996,92.5096571 370.996184,95.0740488 372.642905,95.0740488 L379.229791,95.0740488 C380.329585,95.0740488 381.78984,92.1460316 383.623027,86.2828673 L384.719852,86.2828673 L385.819646,87.3832504 L386.91647,87.3832504 L392.406531,82.9876597 L392.406531,79.692452 Z" id="Fill-18" fill="url(#linearGradient-1)"></path>
                    <path d="M136.572828,19.2701319 C136.572828,25.6799228 134.741422,29.7059464 131.082767,31.3535502 L126.691312,31.3535502 L123.396088,28.0583426 L123.396088,26.9609303 L124.494694,26.9609303 L127.789324,29.1587256 L129.984755,29.1587256 C132.361307,29.1587256 134.192713,24.3995094 135.474816,14.8763237 L136.572828,14.8763237 L136.572828,19.2701319 Z M125.592706,17.0723365 L125.592706,19.2701319 L123.396088,21.4679273 L123.396088,19.2701319 L125.592706,17.0723365 Z M110.221128,25.8605472 L106.925904,25.8605472 L103.633055,22.5653395 L103.633055,19.2701319 C103.633055,16.343303 106.557723,11.5793335 112.415965,4.98891823 L112.415965,3.89031763 L110.951553,3.89031763 L113.514571,2.79112287 L116.809202,2.79112287 L119.004633,4.98891823 C115.71119,4.98891823 110.949772,9.75169943 104.731067,19.2701319 L104.731067,20.3687325 L108.02451,24.7631349 C112.965862,24.7631349 117.723123,19.2701319 122.299263,8.28412588 C125.957918,9.20329036 127.789324,10.301891 127.789324,11.5793335 L127.789324,15.9749243 L125.592706,15.9749243 L126.691312,10.4819212 L124.494694,10.4819212 C119.554529,20.7377054 114.793111,25.8605472 110.221128,25.8605472 L110.221128,25.8605472 Z M101.435843,12.6785283 C101.435843,13.7771289 99.9696492,14.8763237 97.0443878,15.9749243 L93.750945,15.9749243 L93.750945,14.8763237 C96.6762063,14.8763237 99.2410061,13.7771289 101.435843,11.5793335 L101.435843,12.6785283 Z M91.5543267,4.98891823 L88.2608838,6.08633052 L87.1628716,6.08633052 C87.1628716,4.25869642 90.0881329,3.16009581 95.9463756,2.79112287 L97.0443878,2.79112287 L97.0443878,3.89031763 L91.5543267,10.4819212 L92.6529327,7.18552528 L92.6529327,6.08633052 L91.5543267,4.98891823 Z M86.0642655,7.18552528 L80.5742043,7.18552528 C73.9861309,5.90630024 70.6926881,4.43872669 70.6926881,2.79112287 L86.0642655,6.08633052 L86.0642655,7.18552528 Z M104.731067,6.08633052 L105.829673,6.08633052 L110.178966,4.22185854 C109.966371,5.89798201 108.163469,7.25325944 104.731067,8.28412588 L104.731067,6.08633052 Z M180.492724,3.89031763 L181.59133,3.89031763 L182.689342,7.18552528 L183.786167,8.28412588 L184.884773,8.28412588 L185.982785,2.79112287 L185.982785,0.594515826 L137.67084,0.594515826 L137.67084,1.69252227 C143.524332,4.25869642 146.454345,6.08633052 146.454345,7.18552528 L146.454345,8.28412588 C142.791532,11.9494948 140.964283,18.1715313 140.964283,26.9609303 L139.866271,26.9609303 L138.769447,22.5653395 C140.231483,15.9749243 142.062889,11.215708 144.259508,8.28412588 C144.259508,6.08633052 140.596102,4.25869642 133.279385,2.79112287 L133.279385,1.69252227 C133.316797,1.35028649 133.496137,0.983690187 133.801966,0.594515826 L125.921694,0.594515826 C125.709693,0.969430364 125.592706,1.33662083 125.592706,1.69252227 C129.984755,6.08633052 134.741422,8.28412588 139.866271,8.28412588 L139.866271,10.4819212 L121.201251,3.89031763 L121.201251,0.594515826 L56.915574,0.594515826 C57.8603752,2.05020619 59.8788412,2.79112287 63.0060086,2.79112287 C69.5946758,8.65250467 77.2813553,11.5793335 86.0642655,11.5793335 C86.0642655,18.1715313 89.7229206,21.4679273 97.0443878,21.4679273 L98.1429939,20.3687325 C98.1429939,26.4107387 102.166268,29.7059464 110.221128,30.2561379 L111.319735,30.2561379 L117.906026,28.0583426 C117.906026,32.0867428 121.9293,34.6517286 129.984755,35.7491409 C134.37621,34.2851323 136.572828,32.8240945 136.572828,31.3535502 C140.779599,36.4829277 145.536266,39.0443486 150.846393,39.0443486 L153.043012,36.8459591 L153.043012,34.6517286 C150.846393,31.9037417 149.749569,29.3423209 149.749569,26.9609303 L149.749569,21.4679273 C149.749569,11.5793335 159.994516,5.72270501 180.492724,3.89031763 L180.492724,3.89031763 Z" id="Fill-20" fill="url(#linearGradient-1)"></path>
                    <path d="M349.6064,45.6375564 C345.579563,45.6375564 343.019514,47.4687555 341.921502,51.1305594 C342.469617,54.7959283 343.568223,56.6235624 345.214945,56.6235624 L349.6064,56.6235624 C351.069625,56.256372 352.531661,54.4257671 353.999637,51.1305594 C352.531661,47.832381 351.069625,46.0041527 349.6064,45.6375564" id="Fill-22" fill="url(#linearGradient-1)"></path>
                </g>
            </g>
        </g>
    </g>
</svg>